<svg class="svg-icon" style="width: 1em; height: 1em;vertical-align: middle;fill: #4ADF86;overflow: hidden;"
    viewBox="0 0 1024 1024" version="1.1" xmlns="http://www.w3.org/2000/svg">
    <path
        d="M512 785.066667a17.015467 17.015467 0 0 1-12.066133-5.000534l-256-256a17.0496 17.0496 0 1 1 24.132266-24.132266L512 743.867733l243.933867-243.933866a17.0496 17.0496 0 1 1 24.132266 24.132266l-256 256A17.015467 17.015467 0 0 1 512 785.066667z m0-256a17.015467 17.015467 0 0 1-12.066133-5.000534l-256-256a17.0496 17.0496 0 1 1 24.132266-24.132266L512 487.867733l243.933867-243.933866a17.0496 17.0496 0 1 1 24.132266 24.132266l-256 256A17.015467 17.015467 0 0 1 512 529.066667z" />
</svg>